# xmcd CD database file
#
# Track frame offsets:
#	187
#	20080
#	43767
#	65872
#	85642
#	109040
#	134197
#	152845
#	171140
#	190350
#
# Disc length: 2879 seconds
#
# Revision: 2
# Processed by: cddbd v1.5.1PL0 Copyright (c) Steve Scherf et al.
# Submitted via: CDex 1.51
#
DISCID=900b3d0a
DTITLE=高橋真梨子 - two for nine
DYEAR=1999
DGENRE=New Age
TTITLE0=恋ことば
TTITLE1=バースデーカード
TTITLE2=万華鏡
TTITLE3=向日葵
TTITLE4=フレンズ
TTITLE5=夢一夜
TTITLE6=センチメンタル
TTITLE7=ライムライト
TTITLE8=Come Prima
TTITLE9=far away
EXTD=YEAR: 1999
EXTT0=
EXTT1=
EXTT2=
EXTT3=
EXTT4=
EXTT5=
EXTT6=
EXTT7=
EXTT8=
EXTT9=
PLAYORDER=
